<svg width="125" height="25" viewBox="0 0 125 25" fill="none" xmlns="http://www.w3.org/2000/svg">
<path d="M0.63675 24V0.255999H2.90875V24H0.63675ZM16.3665 24.16C14.6172 24.16 13.0812 23.7973 11.7585 23.072C10.4358 22.3253 9.40117 21.312 8.6545 20.032C7.90783 18.7307 7.5345 17.248 7.5345 15.584C7.5345 13.92 7.8865 12.448 8.5905 11.168C9.31583 9.888 10.2972 8.88533 11.5345 8.16C12.7932 7.41333 14.2012 7.04 15.7585 7.04C17.3372 7.04 18.7345 7.40267 19.9505 8.128C21.1878 8.832 22.1585 9.83467 22.8625 11.136C23.5665 12.416 23.9185 13.8987 23.9185 15.584C23.9185 15.6907 23.9078 15.808 23.8865 15.936C23.8865 16.0427 23.8865 16.16 23.8865 16.288H9.2625V14.592H22.6705L21.7745 15.264C21.7745 14.048 21.5078 12.9707 20.9745 12.032C20.4625 11.072 19.7585 10.3253 18.8625 9.792C17.9665 9.25867 16.9318 8.992 15.7585 8.992C14.6065 8.992 13.5718 9.25867 12.6545 9.792C11.7372 10.3253 11.0225 11.072 10.5105 12.032C9.9985 12.992 9.7425 14.0907 9.7425 15.328V15.68C9.7425 16.96 10.0198 18.0907 10.5745 19.072C11.1505 20.032 11.9398 20.7893 12.9425 21.344C13.9665 21.8773 15.1292 22.144 16.4305 22.144C17.4545 22.144 18.4038 21.9627 19.2785 21.6C20.1745 21.2373 20.9425 20.6827 21.5825 19.936L22.8625 21.408C22.1158 22.304 21.1772 22.9867 20.0465 23.456C18.9372 23.9253 17.7105 24.16 16.3665 24.16ZM38.6023 24V20.288L38.5063 19.68V13.472C38.5063 12.0427 38.1009 10.944 37.2903 10.176C36.5009 9.408 35.3169 9.024 33.7383 9.024C32.6503 9.024 31.6156 9.20533 30.6343 9.568C29.6529 9.93067 28.8209 10.4107 28.1383 11.008L27.1143 9.312C27.9676 8.58667 28.9916 8.032 30.1863 7.648C31.3809 7.24267 32.6396 7.04 33.9623 7.04C36.1383 7.04 37.8129 7.584 38.9863 8.672C40.1809 9.73867 40.7783 11.3707 40.7783 13.568V24H38.6023ZM32.8103 24.16C31.5516 24.16 30.4529 23.9573 29.5143 23.552C28.5969 23.1253 27.8929 22.5493 27.4023 21.824C26.9116 21.0773 26.6663 20.224 26.6663 19.264C26.6663 18.3893 26.8689 17.6 27.2743 16.896C27.7009 16.1707 28.3836 15.5947 29.3223 15.168C30.2823 14.72 31.5623 14.496 33.1623 14.496H38.9543V16.192H33.2263C31.6049 16.192 30.4743 16.48 29.8343 17.056C29.2156 17.632 28.9062 18.3467 28.9062 19.2C28.9062 20.16 29.2796 20.928 30.0263 21.504C30.7729 22.08 31.8183 22.368 33.1623 22.368C34.4423 22.368 35.5409 22.08 36.4583 21.504C37.3969 20.9067 38.0796 20.0533 38.5063 18.944L39.0183 20.512C38.5916 21.6213 37.8449 22.5067 36.7783 23.168C35.7329 23.8293 34.4103 24.16 32.8103 24.16ZM46.9493 24V7.2H49.1253V11.776L48.9013 10.976C49.3706 9.696 50.1599 8.72533 51.2693 8.064C52.3786 7.38133 53.7546 7.04 55.3973 7.04V9.248C55.3119 9.248 55.2266 9.248 55.1413 9.248C55.0559 9.22667 54.9706 9.216 54.8853 9.216C53.1146 9.216 51.7279 9.76 50.7253 10.848C49.7226 11.9147 49.2213 13.44 49.2213 15.424V24H46.9493ZM68.119 7.04C69.4843 7.04 70.679 7.30667 71.703 7.84C72.7483 8.352 73.559 9.14133 74.135 10.208C74.7323 11.2747 75.031 12.6187 75.031 14.24V24H72.759V14.464C72.759 12.6933 72.311 11.36 71.415 10.464C70.5403 9.54667 69.303 9.088 67.703 9.088C66.5083 9.088 65.463 9.33333 64.567 9.824C63.6923 10.2933 63.0097 10.9867 62.519 11.904C62.0497 12.8 61.815 13.888 61.815 15.168V24H59.543V7.2H61.719V11.808L61.367 10.944C61.9003 9.728 62.7537 8.77867 63.927 8.096C65.1003 7.392 66.4977 7.04 68.119 7.04ZM88.304 24.16C86.5547 24.16 85.0187 23.7973 83.696 23.072C82.3733 22.3253 81.3387 21.312 80.592 20.032C79.8453 18.7307 79.472 17.248 79.472 15.584C79.472 13.92 79.824 12.448 80.528 11.168C81.2533 9.888 82.2347 8.88533 83.472 8.16C84.7307 7.41333 86.1387 7.04 87.696 7.04C89.2747 7.04 90.672 7.40267 91.888 8.128C93.1253 8.832 94.096 9.83467 94.8 11.136C95.504 12.416 95.856 13.8987 95.856 15.584C95.856 15.6907 95.8453 15.808 95.824 15.936C95.824 16.0427 95.824 16.16 95.824 16.288H81.2V14.592H94.608L93.712 15.264C93.712 14.048 93.4453 12.9707 92.912 12.032C92.4 11.072 91.696 10.3253 90.8 9.792C89.904 9.25867 88.8693 8.992 87.696 8.992C86.544 8.992 85.5093 9.25867 84.592 9.792C83.6747 10.3253 82.96 11.072 82.448 12.032C81.936 12.992 81.68 14.0907 81.68 15.328V15.68C81.68 16.96 81.9573 18.0907 82.512 19.072C83.088 20.032 83.8773 20.7893 84.88 21.344C85.904 21.8773 87.0667 22.144 88.368 22.144C89.392 22.144 90.3413 21.9627 91.216 21.6C92.112 21.2373 92.88 20.6827 93.52 19.936L94.8 21.408C94.0533 22.304 93.1147 22.9867 91.984 23.456C90.8747 23.9253 89.648 24.16 88.304 24.16ZM100.481 24V7.2H102.657V11.776L102.433 10.976C102.902 9.696 103.691 8.72533 104.801 8.064C105.91 7.38133 107.286 7.04 108.929 7.04V9.248C108.843 9.248 108.758 9.248 108.673 9.248C108.587 9.22667 108.502 9.216 108.417 9.216C106.646 9.216 105.259 9.76 104.257 10.848C103.254 11.9147 102.753 13.44 102.753 15.424V24H100.481ZM122.352 24V20.288L122.256 19.68V13.472C122.256 12.0427 121.851 10.944 121.04 10.176C120.251 9.408 119.067 9.024 117.488 9.024C116.4 9.024 115.366 9.20533 114.384 9.568C113.403 9.93067 112.571 10.4107 111.888 11.008L110.864 9.312C111.718 8.58667 112.742 8.032 113.936 7.648C115.131 7.24267 116.39 7.04 117.712 7.04C119.888 7.04 121.563 7.584 122.736 8.672C123.931 9.73867 124.528 11.3707 124.528 13.568V24H122.352ZM116.56 24.16C115.302 24.16 114.203 23.9573 113.264 23.552C112.347 23.1253 111.643 22.5493 111.152 21.824C110.662 21.0773 110.416 20.224 110.416 19.264C110.416 18.3893 110.619 17.6 111.024 16.896C111.451 16.1707 112.134 15.5947 113.072 15.168C114.032 14.72 115.312 14.496 116.912 14.496H122.704V16.192H116.976C115.355 16.192 114.224 16.48 113.584 17.056C112.966 17.632 112.656 18.3467 112.656 19.2C112.656 20.16 113.03 20.928 113.776 21.504C114.523 22.08 115.568 22.368 116.912 22.368C118.192 22.368 119.291 22.08 120.208 21.504C121.147 20.9067 121.83 20.0533 122.256 18.944L122.768 20.512C122.342 21.6213 121.595 22.5067 120.528 23.168C119.483 23.8293 118.16 24.16 116.56 24.16Z" fill="white"/>
</svg>
