<?xml version="1.0" encoding="UTF-8" standalone="no"?>
<!-- Created with Inkscape (http://www.inkscape.org/) -->
<svg
   xmlns:dc="http://purl.org/dc/elements/1.1/"
   xmlns:cc="http://creativecommons.org/ns#"
   xmlns:rdf="http://www.w3.org/1999/02/22-rdf-syntax-ns#"
   xmlns:svg="http://www.w3.org/2000/svg"
   xmlns="http://www.w3.org/2000/svg"
   xmlns:sodipodi="http://sodipodi.sourceforge.net/DTD/sodipodi-0.dtd"
   xmlns:inkscape="http://www.inkscape.org/namespaces/inkscape"
   version="1.0"
   width="586.206222573"
   height="170.588431424"
   viewBox="0 0 999 999"
   id="svg2178"
   sodipodi:version="0.32"
   inkscape:version="0.45+0.46pre0+devel"
   sodipodi:docname="Tvb-logo-full.svg"
   inkscape:output_extension="org.inkscape.output.svg.inkscape"
   sodipodi:docbase="C:\Documents and Settings\Administrator\桌面">
  <metadata
     id="metadata14210">
    <rdf:RDF>
      <cc:Work
         rdf:about="">
        <dc:format>image/svg+xml</dc:format>
        <dc:type
           rdf:resource="http://purl.org/dc/dcmitype/StillImage" />
        <dc:title></dc:title>
        <dc:date></dc:date>
        <dc:creator>
          <cc:Agent>
            <dc:title></dc:title>
          </cc:Agent>
        </dc:creator>
        <dc:rights>
          <cc:Agent>
            <dc:title></dc:title>
          </cc:Agent>
        </dc:rights>
        <dc:publisher>
          <cc:Agent>
            <dc:title></dc:title>
          </cc:Agent>
        </dc:publisher>
        <dc:identifier></dc:identifier>
        <dc:source></dc:source>
        <dc:relation></dc:relation>
        <dc:language></dc:language>
        <dc:subject>
          <rdf:Bag />
        </dc:subject>
        <dc:coverage></dc:coverage>
        <dc:description></dc:description>
        <dc:contributor>
          <cc:Agent>
            <dc:title></dc:title>
          </cc:Agent>
        </dc:contributor>
        <cc:license
           rdf:resource="" />
      </cc:Work>
    </rdf:RDF>
  </metadata>
  <sodipodi:namedview
     inkscape:window-height="994"
     inkscape:window-width="1680"
     inkscape:pageshadow="2"
     inkscape:pageopacity="0.0"
     guidetolerance="10.0"
     gridtolerance="10.0"
     objecttolerance="10.0"
     borderopacity="1.0"
     bordercolor="#666666"
     pagecolor="#ffffff"
     id="base"
     inkscape:zoom="0.8377093"
     inkscape:cx="392.14081"
     inkscape:cy="76.973994"
     inkscape:window-x="-4"
     inkscape:window-y="-4"
     inkscape:current-layer="svg2178"
     showgrid="false" />
  <defs
     id="defs2729">
    <inkscape:perspective
       sodipodi:type="inkscape:persp3d"
       inkscape:vp_x="-50 : 600 : 1"
       inkscape:vp_y="0 : 1000 : 0"
       inkscape:vp_z="700 : 600 : 1"
       inkscape:persp3d-origin="300 : 400 : 1"
       id="perspective43" />
    <style
       type="text/css"
       id="style12108" />
    <inkscape:perspective
       sodipodi:type="inkscape:persp3d"
       inkscape:vp_x="-50 : 600 : 1"
       inkscape:vp_y="0 : 1000 : 0"
       inkscape:vp_z="700 : 600 : 1"
       inkscape:persp3d-origin="300 : 400 : 1"
       id="perspective7964" />
    <inkscape:perspective
       sodipodi:type="inkscape:persp3d"
       inkscape:vp_x="-50 : 600 : 1"
       inkscape:vp_y="0 : 1000 : 0"
       inkscape:vp_z="700 : 600 : 1"
       inkscape:persp3d-origin="300 : 400 : 1"
       id="perspective5120" />
    <style
       type="text/css"
       id="style2520" />
    <filter
       inkscape:label="filter1"
       id="filter4978">
      <feColorMatrix
         id="feColorMatrix4980" />
      <feColorMatrix
         id="feColorMatrix4982" />
    </filter>
    <inkscape:perspective
       id="perspective2503"
       inkscape:persp3d-origin="344.66166 : 398.19549 : 1"
       inkscape:vp_z="744.66166 : 598.19549 : 1"
       inkscape:vp_y="0 : 1000 : 0"
       inkscape:vp_x="-5.3383462 : 598.19549 : 1"
       sodipodi:type="inkscape:persp3d" />
    <inkscape:perspective
       id="perspective2513"
       inkscape:persp3d-origin="300 : 400 : 1"
       inkscape:vp_z="700 : 600 : 1"
       inkscape:vp_y="0 : 1000 : 0"
       inkscape:vp_x="-50 : 600 : 1"
       sodipodi:type="inkscape:persp3d" />
  </defs>
  <path
     d="M 571.80221,-288.61121 L 571.80221,-288.61121 L 571.80221,-295.61121 L 571.80221,-295.61121 L 571.80221,-288.61121 z "
     style="fill:#afafaf"
     id="path2186" />
  <path
     d="M 582.80221,-288.61121 L 582.80221,-288.61121 L 582.80221,-294.61121 L 582.80221,-294.61121 L 582.80221,-288.61121 z "
     style="fill:#afafaf"
     id="path2190" />
  <path
     d="M 593.80221,-287.61121 L 593.80221,-287.61121 L 593.80221,-294.61121 L 593.80221,-294.61121 L 593.80221,-287.61121 z "
     style="fill:#afafaf"
     id="path2194" />
  <path
     d="M 784.80221,-88.611213 L 784.80221,-88.611213 L 790.80221,-88.611213 L 790.80221,-88.611213 L 784.80221,-88.611213 z "
     style="fill:#afafaf"
     id="path2310" />
  <path
     d="M 784.80221,-77.611213 L 784.80221,-77.611213 L 791.80221,-77.611213 L 791.80221,-77.611213 L 784.80221,-77.611213 z "
     style="fill:#afafaf"
     id="path2314" />
  <path
     d="M 784.80221,78.388787 L 784.80221,78.388787 L 791.80221,78.388787 L 791.80221,78.388787 L 784.80221,78.388787 z "
     style="fill:#afafaf"
     id="path2318" />
  <path
     d="M 784.80221,89.388787 L 784.80221,89.388787 L 790.80221,89.388787 L 790.80221,89.388787 L 784.80221,89.388787 z "
     style="fill:#afafaf"
     id="path2322" />
  <path
     d="M 593.80221,289.38879 L 593.80221,289.38879 L 593.80221,296.38879 L 593.80221,296.38879 L 593.80221,289.38879 z "
     style="fill:#afafaf"
     id="path2438" />
  <path
     d="M 582.80221,290.38879 L 582.80221,290.38879 L 582.80221,296.38879 L 582.80221,296.38879 L 582.80221,290.38879 z "
     style="fill:#afafaf"
     id="path2442" />
  <path
     d="M 571.80221,290.38879 L 571.80221,290.38879 L 571.80221,297.38879 L 571.80221,297.38879 L 571.80221,290.38879 z "
     style="fill:#afafaf"
     id="path2446" />
  <path
     d="M 273.80221,290.38879 L 273.80221,290.38879 L 273.80221,297.38879 L 273.80221,297.38879 L 273.80221,290.38879 z "
     style="fill:#afafaf"
     id="path2450" />
  <path
     d="M 262.80221,290.38879 L 262.80221,290.38879 L 262.80221,296.38879 L 262.80221,296.38879 L 262.80221,290.38879 z "
     style="fill:#afafaf"
     id="path2454" />
  <path
     d="M 262.80221,-288.61121 L 262.80221,-288.61121 L 262.80221,-294.61121 L 262.80221,-294.61121 L 262.80221,-288.61121 z "
     style="fill:#afafaf"
     id="path2706" />
  <path
     d="M 273.80221,-288.61121 L 273.80221,-288.61121 L 273.80221,-295.61121 L 273.80221,-295.61121 L 273.80221,-288.61121 z "
     style="fill:#afafaf"
     id="path2710" />
  <path
     id="path2722"
     style="fill:#000000;fill-rule:evenodd"
     d="M 1264.717,818.85594 L 1435.6935,360.20519 L 1438.4073,352.06345 L 1441.1211,343.92173 L 1443.835,338.4939 L 1446.549,333.06607 L 1449.2628,327.63827 L 1451.9768,322.21044 L 1457.4046,316.78262 L 1460.1185,314.06872 L 1460.1185,308.64089 L 1462.8323,305.92698 L 1465.5464,303.21307 L 1468.2602,300.49915 L 1470.9741,297.78528 L 1473.688,295.07137 L 1476.4019,292.35744 L 1479.1159,289.64353 L 1481.8297,289.64353 L 1484.5437,286.92962 L 1487.2576,286.92962 L 1489.9715,284.21571 L 1492.6854,284.21571 L 1495.3994,281.50181 L 1498.1132,281.50181 L 1500.8272,281.50181 L 1503.541,281.50181 L 1506.255,278.7879 L 1508.9689,278.7879 L 1511.6828,278.7879 L 1517.1106,278.7879 L 1519.8245,278.7879 L 1522.5385,278.7879 L 1525.2523,276.07399 L 1525.2523,186.51498 L 1262.0031,186.51498 L 1262.0031,276.07399 L 1294.57,276.07399 L 1297.2839,276.07399 L 1299.9979,276.07399 L 1299.9979,278.7879 L 1302.7119,278.7879 L 1305.4257,278.7879 L 1305.4257,278.7879 L 1308.1395,278.7879 L 1310.8535,278.7879 L 1310.8535,281.50181 L 1313.5675,281.50181 L 1316.2814,281.50181 L 1316.2814,284.21571 L 1318.9951,284.21571 L 1318.9951,286.92962 L 1321.7092,286.92962 L 1321.7092,289.64353 L 1324.423,292.35744 L 1324.423,295.07137 L 1324.423,295.07137 L 1324.423,297.78528 L 1327.1371,300.49915 L 1327.1371,303.21307 L 1327.1371,305.92698 L 1327.1371,308.64089 L 1327.1371,314.06872 L 1327.1371,316.78262 L 1327.1371,319.49653 L 1327.1371,324.92435 L 1324.423,327.63827 L 1324.423,333.06607 L 1324.423,335.77999 L 1321.7092,341.20782 L 1215.8668,631.59612 L 1112.7381,333.06607 L 1112.7381,327.63827 L 1112.7381,322.21044 L 1112.7381,319.49653 L 1112.7381,316.78262 L 1112.7381,311.3548 L 1112.7381,308.64089 L 1112.7381,305.92698 L 1112.7381,303.21307 L 1112.7381,300.49915 L 1112.7381,297.78528 L 1112.7381,295.07137 L 1115.4519,295.07137 L 1115.4519,292.35744 L 1115.4519,289.64353 L 1118.1659,289.64353 L 1118.1659,286.92962 L 1120.8799,284.21571 L 1120.8799,284.21571 L 1123.5938,284.21571 L 1123.5938,281.50181 L 1126.3076,281.50181 L 1126.3076,281.50181 L 1129.0216,278.7879 L 1131.7356,278.7879 L 1131.7356,278.7879 L 1134.4494,278.7879 L 1137.1632,278.7879 L 1139.8773,278.7879 L 1142.591,278.7879 L 1142.591,276.07399 L 1145.3049,276.07399 L 1148.0191,276.07399 L 1183.2996,276.07399 L 1183.2996,186.51498 L 854.91667,186.51498 L 854.91667,276.07399 L 857.63066,276.07399 L 863.05847,278.7879 L 865.77223,278.7879 L 868.48611,278.7879 L 871.20027,278.7879 L 873.91415,278.7879 L 876.62791,281.50181 L 879.34195,281.50181 L 882.05572,281.50181 L 884.76976,284.21571 L 887.48358,284.21571 L 890.19763,286.92962 L 892.91139,289.64353 L 895.62527,289.64353 L 895.62527,292.35744 L 898.33943,295.07137 L 901.05319,295.07137 L 903.76706,297.78528 L 903.76706,300.49915 L 906.48088,303.21307 L 906.48088,305.92698 L 909.19487,308.64089 L 909.19487,311.3548 L 911.90886,314.06872 L 914.62274,316.78262 L 914.62274,319.49653 L 917.33667,322.21044 L 917.33667,324.92435 L 917.33667,327.63827 L 920.05055,330.35216 L 920.05055,333.06607 L 922.76431,335.77999 L 1091.027,818.85594 L 1264.717,818.85594 z " />
  <path
     id="path2724"
     style="fill:#000000;fill-rule:evenodd"
     d="M 691.91496,819.13023 L 691.91496,724.14338 L 691.91496,724.14338 L 689.20115,724.14338 L 689.20115,724.14338 L 686.48716,724.14338 L 686.48716,724.14338 L 683.77311,724.14338 L 681.05929,724.14338 L 681.05929,724.14338 L 678.34547,724.14338 L 675.63165,724.14338 L 675.63165,724.14338 L 672.91749,724.14338 L 670.20367,724.14338 L 670.20367,724.14338 L 667.48985,724.14338 L 664.77586,724.14338 L 664.77586,724.14338 L 662.06205,724.14338 L 659.34823,724.14338 L 659.34823,724.14338 L 656.63418,724.14338 L 653.92019,724.14338 L 653.92019,724.14338 L 651.20637,724.14338 L 648.49255,724.14338 L 648.49255,724.14338 L 645.77856,724.14338 L 645.77856,724.14338 L 643.06452,724.14338 L 640.3507,724.14338 L 640.3507,724.14338 L 637.63688,724.14338 L 634.92289,724.14338 L 632.20907,724.14338 L 629.49508,724.14338 L 626.78109,724.14338 L 624.06727,721.42956 L 624.06727,721.42956 L 621.35345,721.42956 L 618.63958,721.42956 L 615.92542,718.71563 L 613.2116,718.71563 L 610.49778,716.00169 L 607.78379,716.00169 L 605.06997,713.28782 L 602.35598,713.28782 L 599.6421,710.57388 L 596.92811,710.57388 L 594.21429,707.85995 L 594.21429,705.14602 L 591.50042,702.43214 L 588.78649,699.71821 L 586.0725,697.00428 L 586.0725,694.2904 L 583.35868,691.57647 L 583.35868,688.86254 L 580.64474,686.14866 L 580.64474,683.43473 L 577.93081,680.72091 L 577.93081,675.29304 L 577.93081,672.57917 L 577.93081,667.1513 L 577.93081,664.43743 L 575.21682,659.00956 L 575.21682,276.34834 L 577.93081,276.34834 L 580.64474,276.34834 L 583.35868,276.34834 L 583.35868,276.34834 L 586.0725,276.34834 L 588.78649,276.34834 L 591.50042,276.34834 L 594.21429,276.34834 L 596.92811,276.34834 L 599.6421,276.34834 L 602.35598,276.34834 L 605.06997,276.34834 L 605.06997,276.34834 L 607.78379,276.34834 L 610.49778,276.34834 L 613.2116,276.34834 L 615.92542,276.34834 L 618.63958,276.34834 L 621.35345,276.34834 L 624.06727,276.34834 L 626.78109,276.34834 L 626.78109,276.34834 L 629.49508,276.34834 L 632.20907,276.34834 L 632.20907,276.34834 L 634.92289,276.34834 L 634.92289,276.34834 L 637.63688,276.34834 L 637.63688,276.34834 L 637.63688,276.34834 L 637.63688,276.34834 L 637.63688,276.34834 L 643.06452,276.34834 L 645.77856,279.06225 L 651.20637,279.06225 L 653.92019,279.06225 L 656.63418,279.06225 L 662.06205,281.77615 L 664.77586,281.77615 L 667.48985,281.77615 L 672.91749,284.49006 L 675.63165,287.20397 L 678.34547,287.20397 L 681.05929,289.91789 L 683.77311,292.6318 L 686.48716,295.34571 L 689.20115,298.05961 L 691.91496,300.77352 L 694.62895,303.48743 L 697.34277,306.20135 L 700.05659,311.62917 L 702.77058,314.34305 L 705.48463,319.77087 L 705.48463,322.48479 L 708.19845,327.9126 L 708.19845,333.34042 L 710.91227,338.76826 L 710.91227,344.19606 L 713.62609,349.62389 L 713.62609,355.05171 L 713.62609,360.47952 L 716.34025,368.62126 L 716.34025,374.04907 L 716.34025,382.19081 L 716.34025,469.03589 L 816.75485,469.03589 L 816.75485,186.78932 L 168.13072,186.78932 L 168.13072,469.03589 L 265.83138,469.03589 L 265.83138,382.19081 L 265.83138,374.04907 L 265.83138,368.62126 L 265.83138,360.47952 L 268.54519,355.05171 L 268.54519,349.62389 L 268.54519,344.19606 L 271.25902,338.76826 L 271.25902,333.34042 L 273.97321,327.9126 L 276.68702,322.48479 L 276.68702,319.77087 L 279.40084,314.34305 L 282.11485,311.62917 L 284.82868,306.20135 L 287.54268,303.48743 L 290.2565,300.77352 L 292.9705,298.05961 L 295.68432,295.34571 L 298.39814,292.6318 L 301.11215,289.91789 L 303.82615,287.20397 L 306.53997,287.20397 L 311.9678,284.49006 L 314.6818,281.77615 L 317.39562,281.77615 L 320.10962,281.77615 L 325.53726,279.06225 L 328.25145,279.06225 L 330.96527,279.06225 L 336.39291,279.06225 L 339.10692,276.34834 L 341.82092,276.34834 L 344.53474,276.34834 L 344.53474,276.34834 L 344.53474,276.34834 L 344.53474,276.34834 L 347.24857,276.34834 L 347.24857,276.34834 L 349.96247,276.34834 L 349.96247,276.34834 L 352.67639,276.34834 L 352.67639,276.34834 L 355.39039,276.34834 L 358.10421,276.34834 L 360.81812,276.34834 L 363.53204,276.34834 L 366.24595,276.34834 L 368.95986,276.34834 L 368.95986,276.34834 L 371.67386,276.34834 L 374.38777,276.34834 L 377.10159,276.34834 L 379.81542,276.34834 L 382.52952,276.34834 L 385.24343,276.34834 L 387.95725,276.34834 L 390.67125,276.34834 L 393.38507,276.34834 L 396.09889,276.34834 L 398.8129,276.34834 L 398.8129,276.34834 L 401.5269,276.34834 L 404.24072,276.34834 L 404.24072,276.34834 L 404.24072,659.00956 L 404.24072,664.43743 L 404.24072,667.1513 L 404.24072,672.57917 L 404.24072,675.29304 L 401.5269,680.72091 L 401.5269,683.43473 L 401.5269,686.14866 L 398.8129,688.86254 L 398.8129,691.57647 L 396.09889,694.2904 L 393.38507,697.00428 L 393.38507,699.71821 L 390.67125,702.43214 L 387.95725,705.14602 L 387.95725,707.85995 L 385.24343,710.57388 L 382.52952,710.57388 L 379.81542,713.28782 L 377.10159,713.28782 L 374.38777,716.00169 L 371.67386,716.00169 L 368.95986,718.71563 L 366.24595,718.71563 L 363.53204,721.42956 L 360.81812,721.42956 L 358.10421,721.42956 L 355.39039,721.42956 L 352.67639,724.14338 L 349.96247,724.14338 L 347.24857,724.14338 L 344.53474,724.14338 L 341.82092,724.14338 L 341.82092,724.14338 L 341.82092,724.14338 L 339.10692,724.14338 L 339.10692,724.14338 L 336.39291,724.14338 L 333.67909,724.14338 L 333.67909,724.14338 L 330.96527,724.14338 L 330.96527,724.14338 L 328.25145,724.14338 L 325.53726,724.14338 L 325.53726,724.14338 L 322.82344,724.14338 L 320.10962,724.14338 L 320.10962,724.14338 L 317.39562,724.14338 L 314.6818,724.14338 L 314.6818,724.14338 L 311.9678,724.14338 L 309.25379,724.14338 L 309.25379,724.14338 L 306.53997,724.14338 L 303.82615,724.14338 L 303.82615,724.14338 L 301.11215,724.14338 L 298.39814,724.14338 L 298.39814,724.14338 L 295.68432,724.14338 L 292.9705,724.14338 L 292.9705,724.14338 L 290.2565,724.14338 L 287.54268,724.14338 L 287.54268,819.13023 L 691.91496,819.13023 z " />
  <path
     id="path2726"
     style="fill:#000000;fill-rule:evenodd"
     d="M 2134.8741,344.2801 C 2133.97,227.9476 2045.8372,187.10156 1981.1891,186.51498 L 1967.6196,186.51498 L 1560.5333,186.51498 L 1560.5333,276.07399 L 1565.961,276.07399 L 1571.3888,276.07399 L 1574.1028,278.7879 L 1579.5305,278.7879 L 1584.9583,278.7879 L 1587.6722,278.7879 L 1593.1002,278.7879 L 1595.814,281.50181 L 1601.2418,281.50181 L 1603.9558,281.50181 L 1606.6696,284.21571 L 1609.3836,284.21571 L 1612.0974,286.92962 L 1614.8113,289.64353 L 1617.5252,289.64353 L 1620.2392,292.35744 L 1622.9531,295.07137 L 1625.6669,297.78528 L 1625.6669,300.49915 L 1628.3809,303.21307 L 1628.3809,305.92698 L 1631.0949,311.3548 L 1631.0949,314.06872 L 1633.8087,316.78262 L 1633.8087,322.21044 L 1633.8087,327.63827 L 1636.5225,330.35216 L 1636.5225,335.77999 L 1636.5225,341.20782 L 1636.5225,346.63562 L 1636.5225,352.06345 L 1636.5225,360.20519 L 1636.5225,639.73786 L 1636.5225,645.16567 L 1636.5225,650.59353 L 1636.5225,656.02134 L 1636.5225,661.44915 L 1636.5225,666.87702 L 1633.8087,672.30477 L 1633.8087,675.01865 L 1633.8087,680.44651 L 1631.0949,683.16044 L 1631.0949,688.58825 L 1628.3809,691.30218 L 1628.3809,694.01606 L 1625.6669,696.72999 L 1625.6669,699.44393 L 1622.9531,702.15775 L 1620.2392,704.87168 L 1617.5252,707.58555 L 1614.8113,710.29949 L 1612.0974,713.01342 L 1609.3836,713.01342 L 1606.6696,715.7273 L 1603.9558,718.44123 L 1601.2418,718.44123 L 1595.814,718.44123 L 1593.1002,721.15516 L 1587.6722,721.15516 L 1584.9583,721.15516 L 1579.5305,723.86904 L 1574.1028,723.86904 L 1571.3888,723.86904 L 1565.961,723.86904 L 1560.5333,723.86904 L 1559.1707,820.21843 L 2008.394,820.31078 C 2056.201,820.32063 2142.6717,743.33591 2143.018,676.60454 C 2143.2228,637.09347 2141.4407,607.53742 2131.3328,587.71483 C 2121.2252,567.89218 2113.6319,558.25084 2098.6836,542.97424 C 2083.7348,527.69756 2063.7949,519.06991 2045.0655,508.01912 C 2026.5502,497.09474 2028.5119,504.10188 2028.8044,500.44824 C 2026.227,498.6123 2046.7666,491.00331 2053.4973,487.49095 C 2066.3471,480.78499 2081.586,469.3968 2100.8965,442.63842 C 2120.207,415.88007 2134.627,367.89612 2134.8741,344.2801 z M 1869.9189,715.7273 L 1867.2049,715.7273 L 1864.4911,715.7273 L 1861.7771,715.7273 L 1856.3493,715.7273 L 1853.6355,715.7273 L 1850.9216,715.7273 L 1848.2074,715.7273 L 1845.4936,715.7273 L 1842.7798,715.7273 L 1840.066,713.01342 L 1837.352,713.01342 L 1837.352,713.01342 L 1834.6379,713.01342 L 1831.9242,710.29949 L 1829.2101,710.29949 L 1829.2101,710.29949 L 1826.4963,707.58555 L 1823.7825,707.58555 L 1823.7825,704.87168 L 1821.0685,704.87168 L 1821.0685,702.15775 L 1818.3545,699.44393 L 1818.3545,699.44393 L 1818.3545,696.72999 L 1815.6407,694.01606 L 1815.6407,691.30218 L 1815.6407,688.58825 L 1815.6407,685.87432 L 1812.9268,683.16044 L 1812.9268,680.44651 L 1812.9268,677.73258 L 1812.9268,675.01865 L 1812.9268,533.89537 L 1891.63,533.89537 L 1897.058,536.6093 L 1899.7719,536.6093 L 1905.1995,536.6093 L 1910.6275,536.6093 L 1916.0552,539.32317 L 1918.7692,539.32317 L 1924.197,542.03713 L 1926.911,542.03713 L 1929.6248,544.75107 L 1935.0527,547.46494 L 1937.7666,550.17887 L 1940.4805,550.17887 L 1943.1942,552.89275 L 1945.9083,555.60668 L 1948.6223,558.32062 L 1951.3361,563.74842 L 1954.0499,566.4623 L 1956.7639,569.17623 L 1956.7639,571.89017 L 1959.4777,574.60404 L 1962.1918,580.03185 L 1962.1918,582.74578 L 1964.9057,585.45966 L 1964.9057,590.88752 L 1967.6196,593.6014 L 1967.6196,596.31533 L 1967.6196,601.74314 L 1967.6196,604.45702 L 1970.3334,607.17095 L 1970.3334,612.59876 L 1970.3334,615.31269 L 1970.3334,620.7405 L 1970.3334,626.16831 L 1970.3334,631.59612 L 1970.3334,637.02393 L 1970.3334,642.45179 L 1970.3334,647.8796 L 1967.6196,653.30741 L 1967.6196,658.73528 L 1967.6196,664.16308 L 1964.9057,669.59084 L 1962.1918,672.30477 L 1962.1918,677.73258 L 1959.4777,680.44651 L 1956.7639,683.16044 L 1956.7639,688.58825 L 1954.0499,691.30218 L 1951.3361,694.01606 L 1945.9083,696.72999 L 1943.1942,699.44393 L 1940.4805,702.15775 L 1937.7666,704.87168 L 1932.3386,704.87168 L 1929.6248,707.58555 L 1924.197,710.29949 L 1918.7692,710.29949 L 1913.3413,713.01342 L 1907.9137,713.01342 L 1902.4857,713.01342 L 1897.058,715.7273 L 1891.63,715.7273 L 1883.4884,715.7273 L 1878.0607,715.7273 L 1869.9189,715.7273 z M 1888.9162,455.19199 L 1812.9268,455.19199 L 1812.9268,316.78262 L 1812.9268,314.06872 L 1812.9268,311.3548 L 1812.9268,305.92698 L 1815.6407,303.21307 L 1815.6407,300.49915 L 1815.6407,297.78528 L 1815.6407,297.78528 L 1818.3545,295.07137 L 1818.3545,292.35744 L 1818.3545,289.64353 L 1821.0685,289.64353 L 1821.0685,286.92962 L 1823.7825,286.92962 L 1823.7825,284.21571 L 1826.4963,284.21571 L 1829.2101,281.50181 L 1829.2101,281.50181 L 1831.9242,278.7879 L 1834.6379,278.7879 L 1837.352,278.7879 L 1837.352,278.7879 L 1840.066,276.07399 L 1842.7798,276.07399 L 1845.4936,276.07399 L 1848.2074,276.07399 L 1850.9216,276.07399 L 1853.6355,276.07399 L 1856.3493,276.07399 L 1861.7771,276.07399 L 1864.4911,276.07399 L 1867.2049,276.07399 L 1869.9189,276.07399 L 1878.0607,276.07399 L 1883.4884,276.07399 L 1891.63,276.07399 L 1897.058,276.07399 L 1902.4857,278.7879 L 1907.9137,278.7879 L 1913.3413,281.50181 L 1918.7692,281.50181 L 1924.197,284.21571 L 1926.911,286.92962 L 1932.3386,286.92962 L 1935.0527,289.64353 L 1940.4805,292.35744 L 1943.1942,295.07137 L 1945.9083,297.78528 L 1948.6223,300.49915 L 1951.3361,305.92698 L 1954.0499,308.64089 L 1956.7639,311.3548 L 1959.4777,316.78262 L 1959.4777,319.49653 L 1962.1918,324.92435 L 1964.9057,327.63827 L 1964.9057,333.06607 L 1967.6196,335.77999 L 1967.6196,341.20782 L 1967.6196,346.63562 L 1967.6196,352.06345 L 1970.3334,354.77736 L 1970.3334,360.20519 L 1970.3334,365.633 L 1970.3334,371.06082 L 1970.3334,376.48862 L 1970.3334,379.20253 L 1970.3334,381.91644 L 1967.6196,387.34427 L 1967.6196,390.05819 L 1967.6196,392.77208 L 1967.6196,398.1999 L 1964.9057,400.91382 L 1964.9057,406.34164 L 1962.1918,409.05554 L 1962.1918,411.76945 L 1959.4777,414.48337 L 1956.7639,419.91119 L 1956.7639,422.62509 L 1954.0499,425.339 L 1951.3361,428.05291 L 1948.6223,430.76682 L 1945.9083,433.48074 L 1943.1942,436.19465 L 1940.4805,438.90855 L 1937.7666,441.62247 L 1932.3386,444.33637 L 1929.6248,447.05029 L 1926.911,447.05029 L 1921.4832,449.76418 L 1918.7692,452.4781 L 1913.3413,452.4781 L 1907.9137,455.19199 L 1902.4857,455.19199 L 1899.7719,455.19199 L 1894.3441,455.19199 L 1888.9162,455.19199 z " />
  <path
     id="path12061"
     style="fill:#000000;fill-rule:evenodd"
     d="M 1264.717,818.85594 L 1435.6935,360.20519 L 1438.4073,352.06345 L 1441.1211,343.92173 L 1443.835,338.4939 L 1446.549,333.06607 L 1449.2628,327.63827 L 1451.9768,322.21044 L 1457.4046,316.78262 L 1460.1185,314.06872 L 1460.1185,308.64089 L 1462.8323,305.92698 L 1465.5464,303.21307 L 1468.2602,300.49915 L 1470.9741,297.78528 L 1473.688,295.07137 L 1476.4019,292.35744 L 1479.1159,289.64353 L 1481.8297,289.64353 L 1484.5437,286.92962 L 1487.2576,286.92962 L 1489.9715,284.21571 L 1492.6854,284.21571 L 1495.3994,281.50181 L 1498.1132,281.50181 L 1500.8272,281.50181 L 1503.541,281.50181 L 1506.255,278.7879 L 1508.9689,278.7879 L 1511.6828,278.7879 L 1517.1106,278.7879 L 1519.8245,278.7879 L 1522.5385,278.7879 L 1525.2523,276.07399 L 1525.2523,186.51498 L 1262.0031,186.51498 L 1262.0031,276.07399 L 1294.57,276.07399 L 1297.2839,276.07399 L 1299.9979,276.07399 L 1299.9979,278.7879 L 1302.7119,278.7879 L 1305.4257,278.7879 L 1305.4257,278.7879 L 1308.1395,278.7879 L 1310.8535,278.7879 L 1310.8535,281.50181 L 1313.5675,281.50181 L 1316.2814,281.50181 L 1316.2814,284.21571 L 1318.9951,284.21571 L 1318.9951,286.92962 L 1321.7092,286.92962 L 1321.7092,289.64353 L 1324.423,292.35744 L 1324.423,295.07137 L 1324.423,295.07137 L 1324.423,297.78528 L 1327.1371,300.49915 L 1327.1371,303.21307 L 1327.1371,305.92698 L 1327.1371,308.64089 L 1327.1371,314.06872 L 1327.1371,316.78262 L 1327.1371,319.49653 L 1327.1371,324.92435 L 1324.423,327.63827 L 1324.423,333.06607 L 1324.423,335.77999 L 1321.7092,341.20782 L 1215.8668,631.59612 L 1112.7381,333.06607 L 1112.7381,327.63827 L 1112.7381,322.21044 L 1112.7381,319.49653 L 1112.7381,316.78262 L 1112.7381,311.3548 L 1112.7381,308.64089 L 1112.7381,305.92698 L 1112.7381,303.21307 L 1112.7381,300.49915 L 1112.7381,297.78528 L 1112.7381,295.07137 L 1115.4519,295.07137 L 1115.4519,292.35744 L 1115.4519,289.64353 L 1118.1659,289.64353 L 1118.1659,286.92962 L 1120.8799,284.21571 L 1120.8799,284.21571 L 1123.5938,284.21571 L 1123.5938,281.50181 L 1126.3076,281.50181 L 1126.3076,281.50181 L 1129.0216,278.7879 L 1131.7356,278.7879 L 1131.7356,278.7879 L 1134.4494,278.7879 L 1137.1632,278.7879 L 1139.8773,278.7879 L 1142.591,278.7879 L 1142.591,276.07399 L 1145.3049,276.07399 L 1148.0191,276.07399 L 1183.2996,276.07399 L 1183.2996,186.51498 L 854.91667,186.51498 L 854.91667,276.07399 L 857.63066,276.07399 L 863.05847,278.7879 L 865.77223,278.7879 L 868.48611,278.7879 L 871.20027,278.7879 L 873.91415,278.7879 L 876.62791,281.50181 L 879.34195,281.50181 L 882.05572,281.50181 L 884.76976,284.21571 L 887.48358,284.21571 L 890.19763,286.92962 L 892.91139,289.64353 L 895.62527,289.64353 L 895.62527,292.35744 L 898.33943,295.07137 L 901.05319,295.07137 L 903.76706,297.78528 L 903.76706,300.49915 L 906.48088,303.21307 L 906.48088,305.92698 L 909.19487,308.64089 L 909.19487,311.3548 L 911.90886,314.06872 L 914.62274,316.78262 L 914.62274,319.49653 L 917.33667,322.21044 L 917.33667,324.92435 L 917.33667,327.63827 L 920.05055,330.35216 L 920.05055,333.06607 L 922.76431,335.77999 L 1091.027,818.85594 L 1264.717,818.85594 z " />
  <path
     id="path12063"
     style="fill:#000000;fill-rule:evenodd"
     d="M 691.91496,819.13023 L 691.91496,724.14338 L 691.91496,724.14338 L 689.20115,724.14338 L 689.20115,724.14338 L 686.48716,724.14338 L 686.48716,724.14338 L 683.77311,724.14338 L 681.05929,724.14338 L 681.05929,724.14338 L 678.34547,724.14338 L 675.63165,724.14338 L 675.63165,724.14338 L 672.91749,724.14338 L 670.20367,724.14338 L 670.20367,724.14338 L 667.48985,724.14338 L 664.77586,724.14338 L 664.77586,724.14338 L 662.06205,724.14338 L 659.34823,724.14338 L 659.34823,724.14338 L 656.63418,724.14338 L 653.92019,724.14338 L 653.92019,724.14338 L 651.20637,724.14338 L 648.49255,724.14338 L 648.49255,724.14338 L 645.77856,724.14338 L 645.77856,724.14338 L 643.06452,724.14338 L 640.3507,724.14338 L 640.3507,724.14338 L 637.63688,724.14338 L 634.92289,724.14338 L 632.20907,724.14338 L 629.49508,724.14338 L 626.78109,724.14338 L 624.06727,721.42956 L 624.06727,721.42956 L 621.35345,721.42956 L 618.63958,721.42956 L 615.92542,718.71563 L 613.2116,718.71563 L 610.49778,716.00169 L 607.78379,716.00169 L 605.06997,713.28782 L 602.35598,713.28782 L 599.6421,710.57388 L 596.92811,710.57388 L 594.21429,707.85995 L 594.21429,705.14602 L 591.50042,702.43214 L 588.78649,699.71821 L 586.0725,697.00428 L 586.0725,694.2904 L 583.35868,691.57647 L 583.35868,688.86254 L 580.64474,686.14866 L 580.64474,683.43473 L 577.93081,680.72091 L 577.93081,675.29304 L 577.93081,672.57917 L 577.93081,667.1513 L 577.93081,664.43743 L 575.21682,659.00956 L 575.21682,276.34834 L 577.93081,276.34834 L 580.64474,276.34834 L 583.35868,276.34834 L 583.35868,276.34834 L 586.0725,276.34834 L 588.78649,276.34834 L 591.50042,276.34834 L 594.21429,276.34834 L 596.92811,276.34834 L 599.6421,276.34834 L 602.35598,276.34834 L 605.06997,276.34834 L 605.06997,276.34834 L 607.78379,276.34834 L 610.49778,276.34834 L 613.2116,276.34834 L 615.92542,276.34834 L 618.63958,276.34834 L 621.35345,276.34834 L 624.06727,276.34834 L 626.78109,276.34834 L 626.78109,276.34834 L 629.49508,276.34834 L 632.20907,276.34834 L 632.20907,276.34834 L 634.92289,276.34834 L 634.92289,276.34834 L 637.63688,276.34834 L 637.63688,276.34834 L 637.63688,276.34834 L 637.63688,276.34834 L 637.63688,276.34834 L 643.06452,276.34834 L 645.77856,279.06225 L 651.20637,279.06225 L 653.92019,279.06225 L 656.63418,279.06225 L 662.06205,281.77615 L 664.77586,281.77615 L 667.48985,281.77615 L 672.91749,284.49006 L 675.63165,287.20397 L 678.34547,287.20397 L 681.05929,289.91789 L 683.77311,292.6318 L 686.48716,295.34571 L 689.20115,298.05961 L 691.91496,300.77352 L 694.62895,303.48743 L 697.34277,306.20135 L 700.05659,311.62917 L 702.77058,314.34305 L 705.48463,319.77087 L 705.48463,322.48479 L 708.19845,327.9126 L 708.19845,333.34042 L 710.91227,338.76826 L 710.91227,344.19606 L 713.62609,349.62389 L 713.62609,355.05171 L 713.62609,360.47952 L 716.34025,368.62126 L 716.34025,374.04907 L 716.34025,382.19081 L 716.34025,469.03589 L 816.75485,469.03589 L 816.75485,186.78932 L 168.13072,186.78932 L 168.13072,469.03589 L 265.83138,469.03589 L 265.83138,382.19081 L 265.83138,374.04907 L 265.83138,368.62126 L 265.83138,360.47952 L 268.54519,355.05171 L 268.54519,349.62389 L 268.54519,344.19606 L 271.25902,338.76826 L 271.25902,333.34042 L 273.97321,327.9126 L 276.68702,322.48479 L 276.68702,319.77087 L 279.40084,314.34305 L 282.11485,311.62917 L 284.82868,306.20135 L 287.54268,303.48743 L 290.2565,300.77352 L 292.9705,298.05961 L 295.68432,295.34571 L 298.39814,292.6318 L 301.11215,289.91789 L 303.82615,287.20397 L 306.53997,287.20397 L 311.9678,284.49006 L 314.6818,281.77615 L 317.39562,281.77615 L 320.10962,281.77615 L 325.53726,279.06225 L 328.25145,279.06225 L 330.96527,279.06225 L 336.39291,279.06225 L 339.10692,276.34834 L 341.82092,276.34834 L 344.53474,276.34834 L 344.53474,276.34834 L 344.53474,276.34834 L 344.53474,276.34834 L 347.24857,276.34834 L 347.24857,276.34834 L 349.96247,276.34834 L 349.96247,276.34834 L 352.67639,276.34834 L 352.67639,276.34834 L 355.39039,276.34834 L 358.10421,276.34834 L 360.81812,276.34834 L 363.53204,276.34834 L 366.24595,276.34834 L 368.95986,276.34834 L 368.95986,276.34834 L 371.67386,276.34834 L 374.38777,276.34834 L 377.10159,276.34834 L 379.81542,276.34834 L 382.52952,276.34834 L 385.24343,276.34834 L 387.95725,276.34834 L 390.67125,276.34834 L 393.38507,276.34834 L 396.09889,276.34834 L 398.8129,276.34834 L 398.8129,276.34834 L 401.5269,276.34834 L 404.24072,276.34834 L 404.24072,276.34834 L 404.24072,659.00956 L 404.24072,664.43743 L 404.24072,667.1513 L 404.24072,672.57917 L 404.24072,675.29304 L 401.5269,680.72091 L 401.5269,683.43473 L 401.5269,686.14866 L 398.8129,688.86254 L 398.8129,691.57647 L 396.09889,694.2904 L 393.38507,697.00428 L 393.38507,699.71821 L 390.67125,702.43214 L 387.95725,705.14602 L 387.95725,707.85995 L 385.24343,710.57388 L 382.52952,710.57388 L 379.81542,713.28782 L 377.10159,713.28782 L 374.38777,716.00169 L 371.67386,716.00169 L 368.95986,718.71563 L 366.24595,718.71563 L 363.53204,721.42956 L 360.81812,721.42956 L 358.10421,721.42956 L 355.39039,721.42956 L 352.67639,724.14338 L 349.96247,724.14338 L 347.24857,724.14338 L 344.53474,724.14338 L 341.82092,724.14338 L 341.82092,724.14338 L 341.82092,724.14338 L 339.10692,724.14338 L 339.10692,724.14338 L 336.39291,724.14338 L 333.67909,724.14338 L 333.67909,724.14338 L 330.96527,724.14338 L 330.96527,724.14338 L 328.25145,724.14338 L 325.53726,724.14338 L 325.53726,724.14338 L 322.82344,724.14338 L 320.10962,724.14338 L 320.10962,724.14338 L 317.39562,724.14338 L 314.6818,724.14338 L 314.6818,724.14338 L 311.9678,724.14338 L 309.25379,724.14338 L 309.25379,724.14338 L 306.53997,724.14338 L 303.82615,724.14338 L 303.82615,724.14338 L 301.11215,724.14338 L 298.39814,724.14338 L 298.39814,724.14338 L 295.68432,724.14338 L 292.9705,724.14338 L 292.9705,724.14338 L 290.2565,724.14338 L 287.54268,724.14338 L 287.54268,819.13023 L 691.91496,819.13023 z " />
  <path
     id="path12065"
     style="fill:#000000;fill-rule:evenodd"
     d="M 2134.8741,344.2801 C 2133.97,227.9476 2045.8372,187.10156 1981.1891,186.51498 L 1967.6196,186.51498 L 1560.5333,186.51498 L 1560.5333,276.07399 L 1565.961,276.07399 L 1571.3888,276.07399 L 1574.1028,278.7879 L 1579.5305,278.7879 L 1584.9583,278.7879 L 1587.6722,278.7879 L 1593.1002,278.7879 L 1595.814,281.50181 L 1601.2418,281.50181 L 1603.9558,281.50181 L 1606.6696,284.21571 L 1609.3836,284.21571 L 1612.0974,286.92962 L 1614.8113,289.64353 L 1617.5252,289.64353 L 1620.2392,292.35744 L 1622.9531,295.07137 L 1625.6669,297.78528 L 1625.6669,300.49915 L 1628.3809,303.21307 L 1628.3809,305.92698 L 1631.0949,311.3548 L 1631.0949,314.06872 L 1633.8087,316.78262 L 1633.8087,322.21044 L 1633.8087,327.63827 L 1636.5225,330.35216 L 1636.5225,335.77999 L 1636.5225,341.20782 L 1636.5225,346.63562 L 1636.5225,352.06345 L 1636.5225,360.20519 L 1636.5225,639.73786 L 1636.5225,645.16567 L 1636.5225,650.59353 L 1636.5225,656.02134 L 1636.5225,661.44915 L 1636.5225,666.87702 L 1633.8087,672.30477 L 1633.8087,675.01865 L 1633.8087,680.44651 L 1631.0949,683.16044 L 1631.0949,688.58825 L 1628.3809,691.30218 L 1628.3809,694.01606 L 1625.6669,696.72999 L 1625.6669,699.44393 L 1622.9531,702.15775 L 1620.2392,704.87168 L 1617.5252,707.58555 L 1614.8113,710.29949 L 1612.0974,713.01342 L 1609.3836,713.01342 L 1606.6696,715.7273 L 1603.9558,718.44123 L 1601.2418,718.44123 L 1595.814,718.44123 L 1593.1002,721.15516 L 1587.6722,721.15516 L 1584.9583,721.15516 L 1579.5305,723.86904 L 1574.1028,723.86904 L 1571.3888,723.86904 L 1565.961,723.86904 L 1560.5333,723.86904 L 1559.1707,820.21843 L 2008.394,820.31078 C 2056.201,820.32063 2142.6717,743.33591 2143.018,676.60454 C 2143.2228,637.09347 2141.4407,607.53742 2131.3328,587.71483 C 2121.2252,567.89218 2113.6319,558.25084 2098.6836,542.97424 C 2083.7348,527.69756 2063.7949,519.06991 2045.0655,508.01912 C 2026.5502,497.09474 2028.5119,504.10188 2028.8044,500.44824 C 2026.227,498.6123 2046.7666,491.00331 2053.4973,487.49095 C 2066.3471,480.78499 2081.586,469.3968 2100.8965,442.63842 C 2120.207,415.88007 2134.627,367.89612 2134.8741,344.2801 z M 1869.9189,715.7273 L 1867.2049,715.7273 L 1864.4911,715.7273 L 1861.7771,715.7273 L 1856.3493,715.7273 L 1853.6355,715.7273 L 1850.9216,715.7273 L 1848.2074,715.7273 L 1845.4936,715.7273 L 1842.7798,715.7273 L 1840.066,713.01342 L 1837.352,713.01342 L 1837.352,713.01342 L 1834.6379,713.01342 L 1831.9242,710.29949 L 1829.2101,710.29949 L 1829.2101,710.29949 L 1826.4963,707.58555 L 1823.7825,707.58555 L 1823.7825,704.87168 L 1821.0685,704.87168 L 1821.0685,702.15775 L 1818.3545,699.44393 L 1818.3545,699.44393 L 1818.3545,696.72999 L 1815.6407,694.01606 L 1815.6407,691.30218 L 1815.6407,688.58825 L 1815.6407,685.87432 L 1812.9268,683.16044 L 1812.9268,680.44651 L 1812.9268,677.73258 L 1812.9268,675.01865 L 1812.9268,533.89537 L 1891.63,533.89537 L 1897.058,536.6093 L 1899.7719,536.6093 L 1905.1995,536.6093 L 1910.6275,536.6093 L 1916.0552,539.32317 L 1918.7692,539.32317 L 1924.197,542.03713 L 1926.911,542.03713 L 1929.6248,544.75107 L 1935.0527,547.46494 L 1937.7666,550.17887 L 1940.4805,550.17887 L 1943.1942,552.89275 L 1945.9083,555.60668 L 1948.6223,558.32062 L 1951.3361,563.74842 L 1954.0499,566.4623 L 1956.7639,569.17623 L 1956.7639,571.89017 L 1959.4777,574.60404 L 1962.1918,580.03185 L 1962.1918,582.74578 L 1964.9057,585.45966 L 1964.9057,590.88752 L 1967.6196,593.6014 L 1967.6196,596.31533 L 1967.6196,601.74314 L 1967.6196,604.45702 L 1970.3334,607.17095 L 1970.3334,612.59876 L 1970.3334,615.31269 L 1970.3334,620.7405 L 1970.3334,626.16831 L 1970.3334,631.59612 L 1970.3334,637.02393 L 1970.3334,642.45179 L 1970.3334,647.8796 L 1967.6196,653.30741 L 1967.6196,658.73528 L 1967.6196,664.16308 L 1964.9057,669.59084 L 1962.1918,672.30477 L 1962.1918,677.73258 L 1959.4777,680.44651 L 1956.7639,683.16044 L 1956.7639,688.58825 L 1954.0499,691.30218 L 1951.3361,694.01606 L 1945.9083,696.72999 L 1943.1942,699.44393 L 1940.4805,702.15775 L 1937.7666,704.87168 L 1932.3386,704.87168 L 1929.6248,707.58555 L 1924.197,710.29949 L 1918.7692,710.29949 L 1913.3413,713.01342 L 1907.9137,713.01342 L 1902.4857,713.01342 L 1897.058,715.7273 L 1891.63,715.7273 L 1883.4884,715.7273 L 1878.0607,715.7273 L 1869.9189,715.7273 z M 1888.9162,455.19199 L 1812.9268,455.19199 L 1812.9268,316.78262 L 1812.9268,314.06872 L 1812.9268,311.3548 L 1812.9268,305.92698 L 1815.6407,303.21307 L 1815.6407,300.49915 L 1815.6407,297.78528 L 1815.6407,297.78528 L 1818.3545,295.07137 L 1818.3545,292.35744 L 1818.3545,289.64353 L 1821.0685,289.64353 L 1821.0685,286.92962 L 1823.7825,286.92962 L 1823.7825,284.21571 L 1826.4963,284.21571 L 1829.2101,281.50181 L 1829.2101,281.50181 L 1831.9242,278.7879 L 1834.6379,278.7879 L 1837.352,278.7879 L 1837.352,278.7879 L 1840.066,276.07399 L 1842.7798,276.07399 L 1845.4936,276.07399 L 1848.2074,276.07399 L 1850.9216,276.07399 L 1853.6355,276.07399 L 1856.3493,276.07399 L 1861.7771,276.07399 L 1864.4911,276.07399 L 1867.2049,276.07399 L 1869.9189,276.07399 L 1878.0607,276.07399 L 1883.4884,276.07399 L 1891.63,276.07399 L 1897.058,276.07399 L 1902.4857,278.7879 L 1907.9137,278.7879 L 1913.3413,281.50181 L 1918.7692,281.50181 L 1924.197,284.21571 L 1926.911,286.92962 L 1932.3386,286.92962 L 1935.0527,289.64353 L 1940.4805,292.35744 L 1943.1942,295.07137 L 1945.9083,297.78528 L 1948.6223,300.49915 L 1951.3361,305.92698 L 1954.0499,308.64089 L 1956.7639,311.3548 L 1959.4777,316.78262 L 1959.4777,319.49653 L 1962.1918,324.92435 L 1964.9057,327.63827 L 1964.9057,333.06607 L 1967.6196,335.77999 L 1967.6196,341.20782 L 1967.6196,346.63562 L 1967.6196,352.06345 L 1970.3334,354.77736 L 1970.3334,360.20519 L 1970.3334,365.633 L 1970.3334,371.06082 L 1970.3334,376.48862 L 1970.3334,379.20253 L 1970.3334,381.91644 L 1967.6196,387.34427 L 1967.6196,390.05819 L 1967.6196,392.77208 L 1967.6196,398.1999 L 1964.9057,400.91382 L 1964.9057,406.34164 L 1962.1918,409.05554 L 1962.1918,411.76945 L 1959.4777,414.48337 L 1956.7639,419.91119 L 1956.7639,422.62509 L 1954.0499,425.339 L 1951.3361,428.05291 L 1948.6223,430.76682 L 1945.9083,433.48074 L 1943.1942,436.19465 L 1940.4805,438.90855 L 1937.7666,441.62247 L 1932.3386,444.33637 L 1929.6248,447.05029 L 1926.911,447.05029 L 1921.4832,449.76418 L 1918.7692,452.4781 L 1913.3413,452.4781 L 1907.9137,455.19199 L 1902.4857,455.19199 L 1899.7719,455.19199 L 1894.3441,455.19199 L 1888.9162,455.19199 z " />
  <g
     id="g2524"
     transform="matrix(4.9358044,0,0,4.9358044,-1187.9463,-16.165416)">
    <rect
       ry="77.010002"
       y="8.2165489"
       x="8.9809885"
       height="194.4697"
       width="244.46182"
       id="rect2527"
       style="opacity:1;fill:#ffffff;fill-opacity:1;fill-rule:evenodd;stroke:#a69696;stroke-width:1.14430308;stroke-linecap:square;stroke-linejoin:bevel;stroke-miterlimit:4;stroke-dasharray:1.14430307, 1.14430307;stroke-dashoffset:0;stroke-opacity:1" />
    <path
       sodipodi:nodetypes="cczc"
       id="path4771"
       d="M 53.201587,72.964242 L 210.86715,72.951472 C 210.86715,72.951472 191.62043,21.985492 131.90197,22.198492 C 72.182907,22.411502 53.201587,72.964242 53.201587,72.964242 z"
       style="fill:#00b0ed;fill-opacity:1;fill-rule:evenodd;stroke:none;stroke-width:0.1;stroke-linecap:butt;stroke-linejoin:miter;stroke-miterlimit:4;stroke-dasharray:none;stroke-opacity:1" />
    <path
       sodipodi:nodetypes="ccccc"
       id="path4801"
       d="M 50.258757,79.774042 L 213.25244,79.788092 C 218.86999,93.648102 218.27884,116.48266 213.36075,128.5407 L 50.143187,128.53911 C 45.151067,117.14864 45.097117,91.651992 50.258757,79.774042 z"
       style="fill:#35b256;fill-opacity:1;fill-rule:evenodd;stroke:none;stroke-width:0.1;stroke-linecap:butt;stroke-linejoin:miter;stroke-miterlimit:4;stroke-dasharray:none;stroke-opacity:1" />
    <path
       style="fill:#ee3845;fill-opacity:1;fill-rule:evenodd;stroke:none;stroke-width:0.1;stroke-linecap:butt;stroke-linejoin:miter;stroke-miterlimit:4;stroke-dasharray:none;stroke-opacity:1"
       d="M 52.968727,134.52797 L 210.63429,134.54074 C 210.63429,134.54074 191.38757,185.50672 131.66911,185.29371 C 71.950037,185.08071 52.968727,134.52797 52.968727,134.52797 z"
       id="path4817"
       sodipodi:nodetypes="cczc" />
    <path
       id="path2530"
       style="fill:#afafaf"
       d="M 355.13974,-607.73654 L 355.13974,-607.73654 L 355.13974,-614.73654 L 355.13974,-614.73654 L 355.13974,-607.73654 z" />
    <path
       id="path2532"
       style="fill:#afafaf"
       d="M 366.13974,-607.73654 L 366.13974,-607.73654 L 366.13974,-613.73654 L 366.13974,-613.73654 L 366.13974,-607.73654 z" />
    <path
       id="path2534"
       style="fill:#afafaf"
       d="M 377.13974,-606.73654 L 377.13974,-606.73654 L 377.13974,-613.73654 L 377.13974,-613.73654 L 377.13974,-606.73654 z" />
    <path
       id="path2536"
       style="fill:#afafaf"
       d="M 568.13974,-407.73654 L 568.13974,-407.73654 L 574.13974,-407.73654 L 574.13974,-407.73654 L 568.13974,-407.73654 z" />
    <path
       id="path2538"
       style="fill:#afafaf"
       d="M 568.13974,-396.73654 L 568.13974,-396.73654 L 575.13974,-396.73654 L 575.13974,-396.73654 L 568.13974,-396.73654 z" />
    <path
       id="path2540"
       style="fill:#afafaf"
       d="M 86.87104,-7.9539473 L 86.87104,-7.9539473 L 86.87104,-0.95394764 L 86.87104,-0.95394764 L 86.87104,-7.9539473 z" />
    <path
       id="path2542"
       style="fill:#afafaf"
       d="M 75.87104,-7.9539473 L 75.87104,-7.9539473 L 75.87104,-1.9539476 L 75.87104,-1.9539476 L 75.87104,-7.9539473 z" />
    <path
       id="path2544"
       style="fill:#afafaf"
       d="M 46.139739,-607.73654 L 46.139739,-607.73654 L 46.139739,-613.73654 L 46.139739,-613.73654 L 46.139739,-607.73654 z" />
    <path
       id="path2546"
       style="fill:#afafaf"
       d="M 57.139739,-607.73654 L 57.139739,-607.73654 L 57.139739,-614.73654 L 57.139739,-614.73654 L 57.139739,-607.73654 z" />
  </g>
</svg>
